name C:\Users\u0101727\Documents\MyRepositories\upper-imu-dc\Results\main_tracking\Case_31\FLX01_orientations_groundFrame.mot
datacolumns 13
datarows 21
range 0.51000000 0.71000000
endheader 
time	radius_imu_[0][0]	radius_imu_[0][1]	radius_imu_[0][2]	radius_imu_[1][0]	radius_imu_[1][1]	radius_imu_[1][2]	radius_imu_[2][0]	radius_imu_[2][1]	radius_imu_[2][2]	radius_imu_x	radius_imu_y	radius_imu_z	
          0.51000000	          0.71932683	         -0.05927819	          0.69213800	         -0.13958891	          0.96369576	          0.22760806	         -0.68050264	         -0.26033937	          0.68493764	         -0.32082458	          0.76444704	          0.08222208	
          0.52000000	          0.71093166	         -0.06054023	          0.70065045	         -0.14146485	          0.96361217	          0.22680231	         -0.68888596	         -0.26035836	          0.67649809	         -0.32348297	          0.77630871	          0.08495123	
          0.53000000	          0.70154011	         -0.06210024	          0.70991904	         -0.14391016	          0.96332615	          0.22647869	         -0.69794795	         -0.26104845	          0.66687507	         -0.32739055	          0.78938324	          0.08828974	
          0.54000000	          0.69210994	         -0.06377852	          0.71896880	         -0.14656196	          0.96291989	          0.22650580	         -0.70675556	         -0.26214039	          0.65709892	         -0.33195060	          0.80231752	          0.09189134	
          0.55000000	          0.68337567	         -0.06554599	          0.72711857	         -0.14906928	          0.96245117	          0.22686139	         -0.71468597	         -0.26342260	          0.64794482	         -0.33678578	          0.81411536	          0.09562250	
          0.56000000	          0.67584239	         -0.06746661	          0.73395185	         -0.15113120	          0.96195721	          0.22759104	         -0.72138507	         -0.26473869	          0.63993515	         -0.34169670	          0.82412218	          0.09949633	
          0.57000000	          0.66982878	         -0.06963185	          0.73924341	         -0.15252312	          0.96145908	          0.22876436	         -0.72668157	         -0.26598466	          0.63339249	         -0.34659375	          0.83194619	          0.10358264	
          0.58000000	          0.66553616	         -0.07211311	          0.74287369	         -0.15309960	          0.96096597	          0.23044504	         -0.73049445	         -0.26710317	          0.62851711	         -0.35142904	          0.83735293	          0.10793233	
          0.59000000	          0.66310552	         -0.07494549	          0.74476456	         -0.15277660	          0.96047910	          0.23267834	         -0.73276898	         -0.26807289	          0.62544907	         -0.35615380	          0.84018196	          0.11254438	
          0.60000000	          0.66265503	         -0.07813428	          0.74483780	         -0.15150379	          0.95999488	          0.23549188	         -0.73344047	         -0.26889563	          0.62430780	         -0.36070222	          0.84029172	          0.11736902	
          0.61000000	          0.66430263	         -0.08166978	          0.74298860	         -0.14923738	          0.95950716	          0.23890209	         -0.73241396	         -0.26958496	          0.62521495	         -0.36499115	          0.83752459	          0.12232679	
          0.62000000	          0.66816619	         -0.08554133	          0.73907822	         -0.14592338	          0.95900827	          0.24291870	         -0.72956172	         -0.27015886	          0.62829443	         -0.36892934	          0.83170093	          0.12733139	
          0.63000000	          0.67432416	         -0.08974744	          0.73296133	         -0.14150024	          0.95848865	          0.24754230	         -0.72475141	         -0.27063796	          0.63363277	         -0.37243884	          0.82266498	          0.13231482	
          0.64000000	          0.68273607	         -0.09430172	          0.72455410	         -0.13592330	          0.95793515	          0.25275501	         -0.71791108	         -0.27104875	          0.64119908	         -0.37548875	          0.81038721	          0.13725480	
          0.65000000	          0.69315371	         -0.09923383	          0.71392617	         -0.12920351	          0.95732902	          0.25851036	         -0.70911521	         -0.27142918	          0.65075480	         -0.37813081	          0.79508935	          0.14219658	
          0.66000000	          0.70507269	         -0.10458398	          0.70138056	         -0.12144438	          0.95664467	          0.26473050	         -0.69865854	         -0.27183297	          0.66180290	         -0.38051854	          0.77733250	          0.14725706	
          0.67000000	          0.71776292	         -0.11039150	          0.68748099	         -0.11286003	          0.95585056	          0.27131589	         -0.68708006	         -0.27232961	          0.67361530	         -0.38289695	          0.75801458	          0.15260365	
          0.68000000	          0.73037787	         -0.11668028	          0.67300363	         -0.10376387	          0.95491211	          0.27816529	         -0.67511572	         -0.27299923	          0.68533947	         -0.38556467	          0.73826226	          0.15841472	
          0.69000000	          0.74209934	         -0.12344813	          0.65882405	         -0.09452999	          0.95379583	          0.28519747	         -0.66359072	         -0.27392349	          0.69614171	         -0.38882588	          0.71925454	          0.16484042	
          0.70000000	          0.75225869	         -0.13066575	          0.64578117	         -0.08554027	          0.95247328	          0.29236536	         -0.65329145	         -0.27517469	          0.70532912	         -0.39295134	          0.70204596	          0.17198197	
          0.71000000	          0.76039636	         -0.13828628	          0.63456622	         -0.07713496	          0.95092340	          0.29965793	         -0.64486245	         -0.27680604	          0.71241199	         -0.39815873	          0.68744713	          0.17989474	
